<?xml version="1.0" encoding="UTF-8"?>
<svg id="Layer_1" data-name="Layer 1" xmlns="http://www.w3.org/2000/svg" viewBox="0 0 135.39 437.41">
  <defs>
    <style>
      .cls-1 {
        fill: #f26122;
        stroke-width: 0px;
      }
    </style>
  </defs>
  <path class="cls-1" d="M0,437.41V0h115.53v63.45H33.24v114.08h31.89c16.12,0,28.87,3.31,38.24,9.93,9.37,6.62,17.05,20.72,23.04,42.3,5.99,21.58,8.99,47.11,8.99,76.58,0,39.1-5.18,70.71-15.54,94.85-10.36,24.14-25.49,36.21-45.4,36.21H0ZM33.24,369.47h37.16c20.81,0,31.21-22,31.21-66.01,0-18.15-2.3-33.26-6.89-45.34-4.59-12.07-13.83-18.11-27.7-18.11h-33.78v129.46Z"/>
</svg>