<?xml version="1.0" encoding="UTF-8"?>
<svg id="Layer_1" data-name="Layer 1" xmlns="http://www.w3.org/2000/svg" viewBox="0 0 394.57 546.68">
  <defs>
    <style>
      .cls-1 {
        fill: #f26122;
        stroke-width: 0px;
      }
    </style>
  </defs>
  <path class="cls-1" d="M31.35,546.68H0V113.76h29.45v56.4c9.46-42.08,23.38-63.12,41.75-63.12,15.13,0,27.2,15.6,36.21,46.79,9.01,31.19,13.51,71.03,13.51,119.52,0,45.93-4.3,85.88-12.91,119.85-8.6,33.97-21.41,50.95-38.44,50.95s-30.31-17.3-38.24-51.91v154.46ZM31.35,304.74c0,23.5,2.95,43,8.85,58.49,5.9,15.49,12.45,23.23,19.66,23.23,9.82,0,17-10.2,21.55-30.6,4.55-20.4,6.82-46.3,6.82-77.71s-2.3-59.65-6.89-80.27c-4.59-20.62-11.44-30.93-20.54-30.93-8.2,0-15.16,8.44-20.88,25.31-5.72,16.88-8.58,38.99-8.58,66.33v46.14Z"/>
  <path class="cls-1" d="M256.13,437.41h-29.32c-2.62-19.65-4.19-41.44-4.73-65.37-8.2,48.07-23.6,72.1-46.21,72.1-13.6,0-24.52-9.45-32.76-28.36-8.24-18.9-12.36-42.68-12.36-71.3,0-74.34,27.52-111.51,82.56-111.51,2.16,0,5.09.11,8.78.32v-24.35c0-33.54-9.64-50.31-28.92-50.31s-29.37,16.77-31.89,50.31l-26.21-9.29c1.44-26.91,7.3-49.08,17.56-66.49,10.27-17.41,25.13-26.12,44.59-26.12,10.54,0,19.14,2.08,25.81,6.25,6.67,4.17,12.3,11.21,16.89,21.15,4.59,9.94,7.77,20.72,9.53,32.37s2.64,31.35,2.64,59.12v146.12c0,21.15,1.35,42.94,4.05,65.37ZM222.08,272.7c-39.82,0-59.72,22.54-59.72,67.62,0,13.46,2,24.94,6.01,34.45,4.01,9.51,10.07,14.26,18.17,14.26,11.71,0,20.56-8.81,26.55-26.44,5.99-17.62,8.99-37.65,8.99-60.09v-29.8Z"/>
  <path class="cls-1" d="M345.52,437.41h-35.67V67.61h-49.05V0h133.77v67.61h-49.05v369.8Z"/>
</svg>